<?xml version="1.0" encoding="UTF-8"?>
<!DOCTYPE svg PUBLIC "-//W3C//DTD SVG 1.1//EN" "http://www.w3.org/Graphics/SVG/1.1/DTD/svg11.dtd">
<!-- Creator: CorelDRAW 2019 (64-Bit) -->
<svg xmlns="http://www.w3.org/2000/svg" xml:space="preserve" width="0.478169in" height="0.520835in" version="1.1" style="shape-rendering:geometricPrecision; text-rendering:geometricPrecision; image-rendering:optimizeQuality; fill-rule:evenodd; clip-rule:evenodd"
viewBox="0 0 478.15 520.81"
 xmlns:xlink="http://www.w3.org/1999/xlink"
 xmlns:xodm="http://www.corel.com/coreldraw/odm/2003">
 <defs>
  <style type="text/css">
   <![CDATA[
    .fil1 {fill:#1F5CA9}
    .fil0 {fill:#89C1F4}
   ]]>
  </style>
 </defs>
 <g id="Layer_x0020_1">
  <metadata id="CorelCorpID_0Corel-Layer"/>
  <g id="_2179017104272">
   <g>
    <path class="fil0" d="M264.7 273.33c-42.37,0 -76.84,-34.47 -76.84,-76.84 0,-42.37 34.47,-76.84 76.84,-76.84 42.37,0 76.84,34.47 76.84,76.84 0,42.37 -34.47,76.84 -76.84,76.84z"/>
    <path class="fil1" d="M111.02 435.43c-14.11,0 -25.61,11.5 -25.61,25.62 0,14.11 11.5,25.61 25.61,25.61 14.13,0 25.61,-11.5 25.61,-25.61 0,-14.14 -11.49,-25.62 -25.61,-25.62zm0 34.16c-4.71,0 -8.53,-3.82 -8.53,-8.53 0,-4.71 3.82,-8.53 8.53,-8.53 4.72,0 8.54,3.82 8.54,8.53 0,4.71 -3.83,8.53 -8.54,8.53z"/>
    <path class="fil1" d="M367.15 435.43c-14.11,0 -25.61,11.5 -25.61,25.62 0,14.11 11.5,25.61 25.61,25.61 14.11,0 25.61,-11.5 25.61,-25.61 0,-14.14 -11.5,-25.62 -25.61,-25.62zm0 34.16c-4.72,0 -8.54,-3.82 -8.54,-8.53 0,-4.71 3.82,-8.53 8.54,-8.53 4.71,0 8.53,3.82 8.53,8.53 0.01,4.71 -3.81,8.53 -8.53,8.53z"/>
    <path class="fil1" d="M434.17 350.57c-3.39,-10.21 -13.01,-17.59 -24.33,-17.59l-27.09 0c-16.37,0 -32.42,6.2 -44.61,17.08l-47.83 0 0 -12.34c0,-16.74 -13.61,-30.35 -30.35,-30.35 -10.59,0 -20.56,5.66 -26.02,14.74l-16.77 27.96 -21.19 0c-2.7,0 -5.1,-1.29 -6.58,-3.57 -1.48,-2.28 -1.7,-4.99 -0.59,-7.47l17.16 -38.61c5.61,-12.63 -0.05,-27.57 -12.61,-33.31 -10.49,-4.8 -22.9,-1.89 -30.19,7.08l-48.62 59.95 -74.49 22.92c-23.95,7.37 -40.05,29.16 -40.05,54.22l0 30.29c0,15.46 12.58,28.03 28.03,28.03l23.87 0c4.2,28.9 29.06,51.23 59.11,51.23 30.05,0 54.92,-22.32 59.08,-51.23l137.97 0c4.17,28.9 29.03,51.23 59.08,51.23 30.05,0 54.92,-22.32 59.08,-51.23l0.69 0c28.25,0 51.23,-22.98 51.23,-51.23l0 -17.08c0,-25.78 -19.15,-47.18 -43.97,-50.71zm-185.59 -19.68c2.4,-3.98 6.75,-6.45 11.39,-6.45 7.31,0 13.27,5.95 13.27,13.27l0 12.34 -36.16 0 11.5 -19.17zm-137.57 172.85c-23.54,0 -42.69,-19.16 -42.69,-42.7 0,-23.54 19.14,-42.7 42.69,-42.7 23.54,0 42.7,19.16 42.7,42.7 0,23.54 -19.16,42.7 -42.7,42.7zm256.14 0c-23.54,0 -42.69,-19.16 -42.69,-42.7 0,-23.54 19.14,-42.7 42.69,-42.7 23.54,0 42.69,19.16 42.69,42.7 0.01,23.54 -19.15,42.7 -42.69,42.7zm93.92 -85.38c0,18.84 -15.32,34.16 -34.14,34.16l-0.69 0c-4.16,-28.92 -29.03,-51.24 -59.08,-51.24 -30.05,0 -54.9,22.32 -59.08,51.24l-137.98 0c-4.17,-28.92 -29.04,-51.24 -59.08,-51.24 -30.04,0 -54.92,22.32 -59.08,51.24l-23.89 0c-6.05,0 -10.96,-4.92 -10.96,-10.97l0 -14.65 21.34 0c11.77,0 21.34,-9.58 21.34,-21.35 0,-11.77 -9.57,-21.34 -21.34,-21.34l-4.27 0 0 17.08 4.27 0c2.35,0 4.27,1.92 4.27,4.26 0,2.34 -1.93,4.27 -4.27,4.27l-21.22 0c0.61,-16.9 11.6,-31.46 27.87,-36.46l79.47 -24.46 51.9 -63.99c2.39,-2.94 6.42,-3.85 9.82,-2.31 4.09,1.87 5.94,6.73 4.11,10.84l-17.16 38.63c-3.44,7.73 -2.73,16.59 1.89,23.7 4.61,7.1 12.42,11.33 20.9,11.33l149.08 -0 2.5 -2.5c9.26,-9.26 22.08,-14.56 35.18,-14.56l27.09 0c4.71,0 8.53,3.82 8.53,8.53l0 8.53 8.54 0c18.83,0 34.14,15.32 34.14,34.16l0 17.09z"/>
    <rect class="fil1" x="256.15" y="42.69" width="17.09" height="59.77"/>
    <rect class="fil1" x="256.15" y="8.66" width="17.09" height="17.08"/>
    <rect class="fil1" x="307.38" y="34.16" width="17.09" height="85.38"/>
    <rect class="fil1" x="307.38" y="0" width="17.09" height="17.08"/>
    <rect class="fil1" x="204.93" y="59.77" width="17.08" height="59.77"/>
    <rect class="fil1" x="204.93" y="25.74" width="17.08" height="17.07"/>
   </g>
  </g>
  <path class="fil1" d="M223.62 148.37c-1.17,3.19 -1.2,7.18 -0.04,10.39 9.92,2.23 34.26,-4.54 36.65,10.89 -6.02,0 -33.24,-1.13 -36.64,0.87 -1.78,3.31 -1.07,6.7 -0.2,9.96 5.95,1.37 29.1,0.42 37.13,0.42 -2.02,6.33 -6.08,9.97 -13.44,11.05 -4.56,0.67 -13.46,0.31 -18.72,0.31 -6.49,0 -7.11,3.83 -4.87,10.92 17.61,4.09 20.07,-7.77 39.15,18.93 2.35,3.29 15.86,24.22 18.25,25.39 3.49,1.73 9.39,1.36 12.39,-0.38 1.16,-4.92 -12.89,-21.47 -16.26,-26.23 -3.48,-4.92 -9.7,-13.9 -14.44,-17.4 -2.02,-1.5 -4.24,-2.38 -6.87,-3.62 9.78,-5.45 15.9,-7 18.87,-19l15.02 -0.07c2.25,-2.78 2.09,-7.89 0.22,-10.78 -19.27,-0.64 -11.47,2.3 -19.59,-10.87 17.81,-0.05 22.47,2.58 20.8,-7.77 -0.65,-4.05 -2.22,-3.63 -6.5,-3.59 -10.99,0.1 -56.65,-0.7 -60.91,0.55z"/>
 </g>
</svg>
