<?xml version="1.0" encoding="UTF-8"?>
<!DOCTYPE svg PUBLIC "-//W3C//DTD SVG 1.1//EN" "http://www.w3.org/Graphics/SVG/1.1/DTD/svg11.dtd">
<!-- Creator: CorelDRAW 2019 (64-Bit) -->
<svg xmlns="http://www.w3.org/2000/svg" xml:space="preserve" width="0.520835in" height="0.520811in" version="1.1" style="shape-rendering:geometricPrecision; text-rendering:geometricPrecision; image-rendering:optimizeQuality; fill-rule:evenodd; clip-rule:evenodd"
viewBox="0 0 520.83 520.81"
 xmlns:xlink="http://www.w3.org/1999/xlink"
 xmlns:xodm="http://www.corel.com/coreldraw/odm/2003">
 <defs>
  <style type="text/css">
   <![CDATA[
    .fil1 {fill:#1F5CA9}
    .fil0 {fill:#89C1F4}
   ]]>
  </style>
 </defs>
 <g id="Layer_x0020_1">
  <metadata id="CorelCorpID_0Corel-Layer"/>
  <g id="_2179061350576">
   <g>
    <path class="fil0" d="M235.22 83.97l-92.41 -25.17 -22.71 18.89c-7.13,-10.69 -10.9,-23.13 -10.9,-35.98l0 -20.71c0,-11.58 9.42,-21 21,-21 11.58,0 21,9.42 21,21l0 8.41c0,2.31 1.89,4.2 4.2,4.2 2.31,0 4.2,-1.9 4.2,-4.2l0 -8.41c0,-11.58 9.42,-21 21,-21 11.58,0 21,9.42 21,21l0 8.41c0,2.31 1.89,4.2 4.2,4.2 2.31,0 4.2,-1.9 4.2,-4.2l0 -8.41c0,-11.58 9.42,-21 21,-21 11.58,0 21,9.42 21,21l0 20.71c0,12.84 -3.76,25.29 -10.9,35.98l-5.88 6.28z"/>
    <path class="fil1" d="M102.79 209.98l-16.8 -8.41 -27.19 0 0 -126.01 -58.8 0 0 159.61 58.8 0 0 -16.8 23.22 0 16.8 8.41 10.39 0 0 -16.8 -6.42 0 0 0zm-60.79 8.4l-25.2 0 0 -126.01 25.2 0 0 126.01 0 0z"/>
    <path class="fil0" d="M184.87 394.81c-1.52,0 -3.03,-0.02 -4.56,-0.08 -56.7,-2.29 -103.67,-50.35 -104.69,-107.13 -0.53,-29.29 10.43,-56.98 30.85,-77.98 18.01,-18.52 27.94,-41.63 27.94,-65.05l42 -26.97 16.8 16.8 0 83.98 58.8 -0 9.83 -10.11c20.75,20.63 32.17,48.09 32.17,77.35 0,30.01 -11.93,57.98 -33.57,78.78 -20.53,19.71 -47.22,30.41 -75.57,30.41z"/>
    <path class="fil1" d="M262.26 117.61c4.03,-4.47 6.55,-10.34 6.55,-16.81 0,-13.9 -11.3,-25.22 -25.2,-25.22l-31.27 0 -5.84 -7.31 -65.65 -18.77 -51.49 42.87 -38.96 0 0 16.8 45.04 0 49.32 -41.08 51.96 14.84 17.68 22.09c2.33,2.92 3.37,6.58 2.9,10.29 -0.47,3.71 -2.39,7.01 -5.39,9.25 -5.42,4.06 -13.13,3.51 -17.93,-1.28l-16.95 -16.95 -47.88 38.3 10.49 13.13 36.13 -28.91 6.31 6.32c0.93,0.93 1.96,1.68 2.98,2.46 0.61,6.13 2.84,9.74 6.28,13.54 -4.03,4.47 -6.55,10.33 -6.55,16.81 0,6.48 2.53,12.34 6.55,16.8 -4.03,4.47 -6.55,10.3 -6.55,16.78 0,13.91 11.3,25.2 25.2,25.2l33.61 0c13.9,0 25.2,-11.29 25.2,-25.19 0,-6.48 -2.52,-12.32 -6.55,-16.79 4.03,-4.47 6.55,-10.31 6.55,-16.8 0,-6.49 -2.52,-12.33 -6.55,-16.8 4.03,-4.47 6.55,-10.32 6.55,-16.8 0,-6.48 -2.53,-12.31 -6.55,-16.78zm-18.65 92.37l-33.6 0c-4.63,0 -8.4,-3.77 -8.4,-8.41 0,-4.63 3.77,-8.4 8.4,-8.4l33.6 0c4.63,0 8.4,3.77 8.4,8.4 0,4.63 -3.76,8.41 -8.4,8.41zm0 -33.6l-33.6 0c-4.63,0 -8.4,-3.77 -8.4,-8.4 0,-4.63 3.77,-8.41 8.4,-8.41l33.6 0c4.63,0 8.4,3.77 8.4,8.41 0,4.63 -3.76,8.4 -8.4,8.4zm0 -33.61l-31.12 0c3.35,-1 6.58,-2.56 9.51,-4.76 4.23,-3.18 7.37,-7.35 9.44,-12.04l12.17 0c4.63,0 8.4,3.77 8.4,8.4 0,4.63 -3.76,8.4 -8.4,8.4zm0 -33.6l-9.85 0c-0.77,-5.29 -2.8,-10.33 -6.24,-14.65l-1.73 -2.15 17.82 0c4.63,0 8.4,3.77 8.4,8.4 0,4.63 -3.76,8.39 -8.4,8.39z"/>
    <path class="fil1" d="M462.03 394.78l0 25.2 -56.26 0 -23.08 -15.39 -70.8 -25.1c-6.73,-2.39 -13.98,-1.9 -20.34,1.34 -6.36,3.24 -11.02,8.77 -13.09,15.61 -3.59,11.83 1.74,24.65 12.67,30.45l18.19 9.66 -26.45 0.09 -10.87 -27.19c-3.57,-8.9 -12.09,-14.67 -21.7,-14.67 -7.5,0 -14.59,3.66 -18.97,9.74 -4.37,6.09 -5.56,13.98 -3.17,21.07l2.54 7.55 -18.43 -10.07c-5.87,-3.22 -12.87,-3.84 -19.21,-1.7 -6.34,2.11 -11.56,6.82 -14.32,12.92 -5.4,11.92 -0.43,25.79 11.3,31.56l41.46 20.47 86.07 17.51 111.69 0.16 32.77 -6.55 0 23.35 58.8 -0.01 0 -126.02 -58.8 0 0 0zm-217.07 19.53c2.82,-3.94 9.63,-3.1 11.42,1.4l8.41 20.99 -15.13 0.05 -5.56 -16.52c-0.69,-2.02 -0.38,-4.18 0.87,-5.92zm182.63 72.87l-107.54 0 -82.1 -16.43 -40.48 -19.96c-3.55,-1.76 -5.06,-5.96 -3.43,-9.58 0.84,-1.89 2.39,-3.27 4.34,-3.93 1.95,-0.67 4.03,-0.47 5.83,0.53l28.85 15.77 79.73 -0.01 33.15 -16.58 -46.95 -24.96c-3.84,-2.04 -5.73,-6.56 -4.47,-10.73 0.73,-2.42 2.37,-4.37 4.61,-5.51 2.24,-1.15 4.8,-1.3 7.17,-0.48l67.93 23.83 26.43 17.61 61.37 0 0 43.52 -34.44 6.89zm76.44 16.8l-25.2 0 0 -92.4 25.2 0 0 92.4z"/>
   </g>
  </g>
  <path class="fil1" d="M142.85 253.33c-1.17,3.19 -1.2,7.19 -0.04,10.39 9.93,2.23 34.26,-4.54 36.65,10.89 -6.02,0 -33.24,-1.13 -36.64,0.87 -1.78,3.31 -1.07,6.7 -0.2,9.96 5.95,1.37 29.1,0.42 37.13,0.42 -2.02,6.33 -6.08,9.97 -13.44,11.06 -4.56,0.67 -13.46,0.31 -18.72,0.31 -6.49,0 -7.11,3.83 -4.87,10.93 17.61,4.09 20.07,-7.77 39.15,18.93 2.35,3.29 15.86,24.22 18.25,25.39 3.49,1.73 9.39,1.36 12.39,-0.38 1.16,-4.92 -12.89,-21.47 -16.26,-26.23 -3.48,-4.92 -9.7,-13.9 -14.44,-17.4 -2.02,-1.5 -4.24,-2.38 -6.87,-3.62 9.78,-5.45 15.91,-7 18.87,-19l15.02 -0.07c2.25,-2.78 2.09,-7.89 0.22,-10.78 -19.27,-0.64 -11.47,2.3 -19.59,-10.87 17.81,-0.05 22.47,2.58 20.8,-7.77 -0.65,-4.05 -2.22,-3.63 -6.5,-3.59 -10.99,0.1 -56.65,-0.7 -60.91,0.55z"/>
 </g>
</svg>
