<?xml version="1.0" encoding="UTF-8"?>
<!DOCTYPE svg PUBLIC "-//W3C//DTD SVG 1.1//EN" "http://www.w3.org/Graphics/SVG/1.1/DTD/svg11.dtd">
<!-- Creator: CorelDRAW 2019 (64-Bit) -->
<svg xmlns="http://www.w3.org/2000/svg" xml:space="preserve" width="0.520846in" height="0.504024in" version="1.1" style="shape-rendering:geometricPrecision; text-rendering:geometricPrecision; image-rendering:optimizeQuality; fill-rule:evenodd; clip-rule:evenodd"
viewBox="0 0 520.86 504.04"
 xmlns:xlink="http://www.w3.org/1999/xlink"
 xmlns:xodm="http://www.corel.com/coreldraw/odm/2003">
 <defs>
  <style type="text/css">
   <![CDATA[
    .fil0 {fill:#15549A}
    .fil2 {fill:#1F5CA9}
    .fil1 {fill:#89C1F4}
   ]]>
  </style>
 </defs>
 <g id="Layer_x0020_1">
  <metadata id="CorelCorpID_0Corel-Layer"/>
  <g id="_2210608352352">
   <g>
    <path class="fil0" d="M495.8 260.42l-16.97 0c-0.37,-32.3 -15.93,-62.28 -41.99,-81.25l0 -48.96c0,-16.22 -13.2,-29.41 -29.4,-29.41 -34.79,0 -64.23,25.26 -70.21,58.8l-26.39 0 0 16.8 41.68 0 0.52 -7.84c1.89,-28.58 25.79,-50.96 54.42,-50.96 6.94,0 12.59,5.66 12.59,12.6l0 57.87 3.76 2.49c23.95,15.87 38.25,42.43 38.25,71.08l0 15.58 33.75 0c4.55,0 8.24,3.69 8.24,8.24l0 84.31c0,4.56 -3.69,8.25 -8.24,8.25l-35.48 -0 -1.78 6.03c-8.2,27.92 -29.75,49.47 -57.67,57.67l-6.03 1.78 0 39.48c0,2.35 -1.91,4.24 -4.25,4.24l-83.93 0c-2.35,0 -4.25,-1.9 -4.25,-4.24l0 -37.75 -84 0 0 37.75c0,2.34 -1.91,4.24 -4.25,4.24l-83.91 0c-2.34,0 -4.25,-1.91 -4.25,-4.24l0 -45.06 -4.51 -2.37c-28.31,-14.76 -45.9,-43.71 -45.9,-75.55l0 -98.37c0,-41.72 29.8,-77.05 70.87,-84.01l-2.82 -16.58c-49.16,8.34 -84.84,50.65 -84.84,100.6l0 23.99 -9.95 0c0.94,-2.65 1.54,-5.45 1.54,-8.41 0,-13.9 -11.3,-25.21 -25.2,-25.21 -2.96,0 -5.76,0.6 -8.41,1.54l0 -26.75 -16.8 0 0 50.41c0,13.9 11.3,25.2 25.2,25.2l33.61 0 0 57.58c0,36.39 19.19,69.64 50.41,87.94l0 35.02c0,11.61 9.45,21.05 21.05,21.05l83.91 0c11.61,0 21.05,-9.44 21.05,-21.05l0 -20.95 50.41 0 0 20.95c0,11.6 9.44,21.05 21.05,21.05l83.91 0c11.6,0 21.05,-9.44 21.05,-21.05l0 -27.13c28.5,-10.3 50.74,-32.55 61.05,-61.04l23.12 0c13.8,0 25.04,-11.23 25.04,-25.04l0 -84.31c-0.01,-13.79 -11.25,-25.03 -25.06,-25.03zm-479 16.8c0,-4.63 3.77,-8.41 8.41,-8.41 4.63,0 8.4,3.76 8.4,8.41 0,4.61 -3.77,8.4 -8.4,8.4 -4.63,0 -8.41,-3.78 -8.41,-8.4z"/>
    <path class="fil1" d="M226.82 218.41c-60.22,0 -109.21,-48.99 -109.21,-109.21 0,-60.22 49,-109.2 109.21,-109.2 60.21,0 109.2,48.99 109.2,109.21 0,60.22 -48.98,109.2 -109.2,109.2z"/>
    <rect class="fil0" x="159.61" y="210.02" width="134.41" height="16.8"/>
    <path class="fil0" d="M351.51 248.15c0.08,-0.13 8.49,-12.94 26.53,-12.94 17.68,0 26.21,12.46 26.52,12.94 1.61,2.5 4.32,3.87 7.09,3.87 1.54,0 3.11,-0.43 4.52,-1.32 3.91,-2.5 5.04,-7.7 2.54,-11.61 -0.55,-0.84 -13.58,-20.67 -40.67,-20.67 -27.1,0 -40.15,19.82 -40.68,20.67 -2.51,3.91 -1.37,9.1 2.53,11.61 3.89,2.49 9.08,1.37 11.6,-2.54z"/>
   </g>
  </g>
  <path class="fil2" d="M186.04 63.91c-1.25,3.41 -1.28,7.68 -0.04,11.1 10.61,2.38 36.59,-4.85 39.14,11.63 -6.43,0 -35.5,-1.21 -39.13,0.93 -1.9,3.54 -1.14,7.15 -0.21,10.63 6.35,1.46 31.08,0.45 39.65,0.45 -2.15,6.76 -6.49,10.65 -14.35,11.81 -4.87,0.72 -14.38,0.33 -19.99,0.33 -6.93,0 -7.59,4.09 -5.2,11.67 18.8,4.37 21.43,-8.3 41.81,20.22 2.51,3.51 16.93,25.86 19.49,27.11 3.72,1.84 10.03,1.45 13.23,-0.41 1.24,-5.26 -13.76,-22.93 -17.36,-28.01 -3.72,-5.26 -10.36,-14.85 -15.42,-18.59 -2.16,-1.6 -4.53,-2.54 -7.34,-3.86 10.45,-5.82 16.99,-7.48 20.15,-20.29l16.04 -0.07c2.41,-2.97 2.23,-8.43 0.24,-11.51 -20.58,-0.69 -12.25,2.46 -20.92,-11.61 19.02,-0.06 23.99,2.75 22.21,-8.3 -0.7,-4.33 -2.37,-3.88 -6.95,-3.83 -11.73,0.1 -60.5,-0.75 -65.04,0.59l0 0.01z"/>
 </g>
</svg>
