<?xml version="1.0" encoding="UTF-8"?>
<!DOCTYPE svg PUBLIC "-//W3C//DTD SVG 1.1//EN" "http://www.w3.org/Graphics/SVG/1.1/DTD/svg11.dtd">
<!-- Creator: CorelDRAW 2019 (64-Bit) -->
<svg xmlns="http://www.w3.org/2000/svg" xml:space="preserve" width="0.533803in" height="0.542256in" version="1.1" style="shape-rendering:geometricPrecision; text-rendering:geometricPrecision; image-rendering:optimizeQuality; fill-rule:evenodd; clip-rule:evenodd"
viewBox="0 0 508.82 516.87"
 xmlns:xlink="http://www.w3.org/1999/xlink"
 xmlns:xodm="http://www.corel.com/coreldraw/odm/2003">
 <defs>
  <style type="text/css">
   <![CDATA[
    .fil1 {fill:#15549A}
    .fil2 {fill:#1F5CA9}
    .fil0 {fill:#89C1F4}
   ]]>
  </style>
 </defs>
 <g id="Layer_x0020_1">
  <metadata id="CorelCorpID_0Corel-Layer"/>
  <path class="fil0" d="M307.48 511.91c-34.83,0 -63.16,-28.34 -63.16,-63.16 0,-34.83 28.33,-63.17 63.16,-63.17 34.84,0 63.16,28.33 63.16,63.16 -0.01,34.84 -28.33,63.17 -63.16,63.17z"/>
  <g id="_2212021197040">
   <path class="fil1" d="M138.86 86.4c3.51,10.15 12.95,16.97 23.51,16.97l64.01 0c10.56,0 20.01,-6.82 23.52,-16.97 3.34,-9.7 13.84,-31.4 21.99,-38.29 7.14,-6.06 10.49,-15.44 8.73,-24.48 -1.72,-8.9 -7.93,-15.93 -16.61,-18.8 -25.85,-8.57 -48.79,-5.69 -66.31,8.33 -3.14,2.51 -7.37,2.51 -10.51,0 -17.53,-14.01 -40.44,-16.89 -66.31,-8.32 -8.67,2.87 -14.89,9.89 -16.62,18.79 -1.76,9.05 1.59,18.43 8.74,24.48 9.22,7.81 23.35,31.05 25.85,38.29zm-17.67 -59.48c0.31,-1.61 1.39,-4.49 5.11,-5.72 8.01,-2.65 15.48,-3.97 22.39,-3.97 10.63,0 19.92,3.13 27.75,9.4 9.43,7.55 22.61,7.54 32.03,0 12.93,-10.34 29.79,-12.16 50.14,-5.43 3.72,1.23 4.8,4.12 5.11,5.72 0.58,2.99 -0.53,6 -2.95,8.05 -13.16,11.15 -24.93,39.42 -27.14,45.82 -1.1,3.2 -4.02,5.36 -7.23,5.36l-64.01 0c-3.22,0 -6.12,-2.15 -7.23,-5.36 -3.59,-10.41 -19.57,-36.13 -31.01,-45.82 -2.44,-2.07 -3.55,-5.07 -2.96,-8.05z"/>
   <path class="fil1" d="M267.61 120.6c0,-4.75 -3.86,-8.62 -8.61,-8.62 -1.6,0 -3.02,0.56 -4.31,1.32 -1.28,-0.77 -2.71,-1.32 -4.31,-1.32l-103.37 0c-4.75,0 -8.61,3.86 -8.61,8.62 0,4.75 3.86,8.61 8.61,8.61l103.37 0 0 8.62 -94.76 0c-4.75,0 -8.62,3.86 -8.62,8.61 0,4.76 3.86,8.62 8.62,8.62l102.73 0c7.72,6.42 17.23,10.1 27.38,10.1 11.5,0 22.32,-4.48 30.46,-12.63 3.37,-3.37 3.37,-8.81 0,-12.18 -3.37,-3.37 -8.81,-3.37 -12.18,0 -9.73,9.73 -26.6,9.76 -36.41,0.12l0 -19.87z"/>
   <path class="fil1" d="M181.47 223.97c-55.23,0 -120.6,70.04 -120.6,129.22 0,4.75 3.86,8.61 8.62,8.61 4.75,0 8.61,-3.86 8.61,-8.61 0,-49.19 57.97,-111.99 103.37,-111.99 4.76,0 8.62,-3.86 8.62,-8.62 0,-4.75 -3.86,-8.61 -8.62,-8.61z"/>
   <path class="fil1" d="M422.67 275.66c-8.88,0 -19.46,0.52 -30.13,1.73 -11.6,-21.24 -26.9,-39.51 -46.21,-54.3l-62.04 -42.17c-10.26,-7.87 -26.43,-17.25 -45.19,-17.25l-66.99 0c-16.57,0 -32.87,5.64 -45.66,15.7l-60.97 44.42c-63.55,49.96 -83.66,137.52 -47.82,208.19 13.04,25.71 34.83,56.79 64.61,58.8 2.34,0.15 4.7,0.24 7.07,0.24l167.63 0c12.64,15.73 32,25.85 53.71,25.85 24.97,0 46.81,-13.4 58.91,-33.33 15.39,4.78 34.27,7.48 53.08,7.48 41.43,0 86.14,-13.17 86.14,-34.46l0 -47.38 -0.68 0c0.41,-1.4 0.68,-2.83 0.68,-4.31l0 -51.69 0 -47.38c0,-23.81 -54.15,-30.16 -86.14,-30.16zm68.26 30.07c-0.18,0.18 -0.33,0.36 -0.57,0.56 -0.34,0.27 -0.74,0.55 -1.2,0.84 -0.57,0.36 -1.26,0.74 -2.01,1.12 -0.61,0.31 -1.25,0.63 -1.98,0.95 -0.9,0.41 -1.97,0.81 -3.07,1.22 -0.88,0.33 -1.77,0.65 -2.77,0.99 -1.26,0.41 -2.71,0.83 -4.16,1.23 -1.14,0.32 -2.26,0.65 -3.52,0.96 -1.64,0.41 -3.48,0.77 -5.31,1.14 -1.38,0.29 -2.71,0.58 -4.2,0.84 -2.07,0.36 -4.38,0.67 -6.66,0.98 -1.56,0.21 -3.02,0.45 -4.68,0.65 -2.71,0.31 -5.7,0.53 -8.68,0.74 -1.52,0.11 -2.89,0.27 -4.48,0.36 -4.71,0.26 -9.69,0.41 -15,0.41 -5.31,0 -10.29,-0.16 -15,-0.41 -1.59,-0.09 -2.96,-0.24 -4.48,-0.36 -2.98,-0.22 -5.97,-0.44 -8.68,-0.74 -1.66,-0.19 -3.12,-0.43 -4.68,-0.65 -2.29,-0.31 -4.59,-0.62 -6.66,-0.98 -1.5,-0.27 -2.82,-0.56 -4.2,-0.84 -1.84,-0.38 -3.68,-0.75 -5.31,-1.14 -1.26,-0.31 -2.37,-0.63 -3.52,-0.96 -1.46,-0.41 -2.89,-0.82 -4.16,-1.23 -1,-0.33 -1.89,-0.66 -2.77,-0.99 -1.09,-0.41 -2.16,-0.82 -3.07,-1.22 -0.73,-0.32 -1.37,-0.64 -1.98,-0.95 -0.75,-0.39 -1.44,-0.77 -2.01,-1.12 -0.45,-0.29 -0.86,-0.57 -1.2,-0.84 -0.23,-0.18 -0.36,-0.35 -0.53,-0.52 0.11,-0.09 0.17,-0.17 0.29,-0.27 0.32,-0.27 0.78,-0.57 1.22,-0.86 0.7,-0.45 1.57,-0.94 2.59,-1.45 0.56,-0.29 1.11,-0.56 1.77,-0.84 0.68,-0.3 1.46,-0.6 2.25,-0.92 0.93,-0.36 1.94,-0.72 3.02,-1.08 0.78,-0.26 1.53,-0.53 2.39,-0.78 1.93,-0.59 4.04,-1.16 6.36,-1.72 1.07,-0.26 2.31,-0.49 3.48,-0.73 1.4,-0.3 2.84,-0.59 4.36,-0.87 1.68,-0.3 3.46,-0.59 5.31,-0.86 9.71,-1.47 21.33,-2.48 35.19,-2.48 40.71,-0.01 63.48,8.39 68.3,12.84zm-131.36 70.87c0.78,0.33 1.58,0.64 2.39,0.96 1.5,0.59 3.03,1.14 4.62,1.68 0.84,0.29 1.65,0.56 2.51,0.83 1.82,0.57 3.69,1.09 5.6,1.6 0.67,0.18 1.32,0.38 2,0.54 2.61,0.66 5.28,1.26 8.02,1.79 0.57,0.11 1.16,0.2 1.74,0.31 2.2,0.42 4.42,0.8 6.68,1.13 0.96,0.15 1.94,0.27 2.91,0.4 1.94,0.26 3.88,0.49 5.86,0.7 1.03,0.1 2.07,0.21 3.1,0.3 2.03,0.18 4.08,0.32 6.12,0.44 0.92,0.05 1.83,0.12 2.74,0.17 2.95,0.13 5.88,0.21 8.81,0.21 2.93,0 5.87,-0.09 8.82,-0.21 0.93,-0.05 1.86,-0.11 2.79,-0.17 2.02,-0.12 4.05,-0.26 6.06,-0.43 1.06,-0.09 2.12,-0.2 3.17,-0.31 1.94,-0.2 3.86,-0.43 5.77,-0.69 1,-0.13 2,-0.26 2.99,-0.41 2.22,-0.33 4.41,-0.71 6.57,-1.11 0.61,-0.11 1.23,-0.21 1.85,-0.33 2.72,-0.54 5.38,-1.14 7.97,-1.78 0.72,-0.18 1.41,-0.39 2.13,-0.58 1.87,-0.5 3.7,-1.02 5.48,-1.58 0.87,-0.28 1.71,-0.56 2.55,-0.84 1.58,-0.53 3.11,-1.1 4.6,-1.67 0.8,-0.31 1.6,-0.63 2.38,-0.95 1.55,-0.66 3.02,-1.34 4.45,-2.05 0.45,-0.22 0.95,-0.41 1.38,-0.63l0.05 30.36c-2.02,4.9 -24.28,15.83 -59.41,17.57 -3.15,0.11 -6.2,0.27 -9.6,0.27 -18.98,0 -37.73,-2.91 -52.04,-8.03 -0.05,-0.08 -0.11,-0.17 -0.16,-0.26 -1.02,-1.78 -2.09,-3.51 -3.26,-5.18 -0.17,-0.25 -0.37,-0.48 -0.55,-0.73 -1.08,-1.51 -2.19,-2.98 -3.38,-4.39 -0.36,-0.42 -0.75,-0.81 -1.12,-1.23 -1.06,-1.2 -2.12,-2.38 -3.26,-3.5 -0.59,-0.58 -1.22,-1.1 -1.82,-1.65 -1,-0.91 -1.98,-1.83 -3.02,-2.68 -0.1,-0.09 -0.19,-0.18 -0.29,-0.26 0,-3.37 0.01,-10.85 0.02,-20.27 0.44,0.23 0.96,0.43 1.41,0.65 1.42,0.7 2.87,1.38 4.39,2.03zm-113.81 97.19l-156.42 0c-1.99,0 -3.97,-0.07 -5.93,-0.2 -16.93,-1.14 -34.83,-18.69 -50.4,-49.4 -32.14,-63.36 -14.01,-141.95 42.85,-186.66l60.97 -44.42c10.01,-7.87 22.54,-12.2 35.26,-12.2l66.99 0c13.93,0 26.56,7.45 35.11,13.98l62.04 42.16c15.41,11.82 28.25,26.28 38.29,43.08 -10.91,2.25 -21.45,5.68 -28.69,10.71 -0.2,0.14 -0.39,0.28 -0.59,0.42 -1.1,0.79 -2.09,1.62 -3.01,2.51 -0.39,0.37 -0.74,0.75 -1.09,1.14 -0.68,0.75 -1.33,1.5 -1.87,2.32 -0.45,0.66 -0.77,1.38 -1.12,2.09 -0.3,0.63 -0.66,1.25 -0.88,1.92 -0.48,1.45 -0.77,2.98 -0.77,4.6l0 47.38 0 30.91c-2.9,-1.18 -5.91,-2.13 -8.99,-2.9 -0.41,-0.11 -0.81,-0.22 -1.22,-0.31 -3.01,-0.71 -6.09,-1.24 -9.24,-1.53 -0.35,-0.04 -0.71,-0.03 -1.06,-0.05 -1.77,-0.14 -3.54,-0.27 -5.34,-0.27 -0.95,0 -1.86,0.1 -2.8,0.14 -0.73,0.03 -1.46,0.06 -2.2,0.11 -3.07,0.23 -6.1,0.58 -9.04,1.19 -0.06,0.01 -0.11,0.01 -0.17,0.03 -0.23,0.05 -0.45,0.15 -0.68,0.2 -2.7,0.59 -5.33,1.38 -7.89,2.29 -0.93,0.33 -1.86,0.66 -2.77,1.02 -2.56,1.02 -5.06,2.16 -7.46,3.48 -0.9,0.49 -1.75,1.06 -2.63,1.59 -1.68,1.02 -3.32,2.1 -4.89,3.26 -0.93,0.68 -1.87,1.34 -2.77,2.07 -2.02,1.64 -3.95,3.38 -5.78,5.25 -0.8,0.81 -1.53,1.67 -2.29,2.53 -1.29,1.44 -2.52,2.95 -3.69,4.5 -0.63,0.84 -1.29,1.65 -1.89,2.51 -1.52,2.21 -2.87,4.54 -4.12,6.93 -0.48,0.93 -0.92,1.88 -1.37,2.83 -0.98,2.11 -1.86,4.27 -2.63,6.49 -0.23,0.65 -0.5,1.26 -0.7,1.91 -0.89,2.83 -1.53,5.76 -2.05,8.72 -0.07,0.38 -0.21,0.74 -0.27,1.12 -0.07,0.47 -0.07,0.96 -0.13,1.43 -0.28,2.02 -0.45,4.08 -0.54,6.15 -0.03,0.74 -0.1,1.47 -0.11,2.22 0,0.32 -0.05,0.63 -0.05,0.95 0,1.37 0.13,2.7 0.21,4.05 0.33,7.44 1.55,14.92 3.8,21.78zm64.92 25.85c-28.3,0 -51.33,-22.87 -51.65,-51.08 0,-0.67 0.02,-1.33 0.05,-2 0.03,-0.95 0.07,-1.89 0.15,-2.83 0.06,-0.8 0.15,-1.58 0.25,-2.36 0.11,-0.8 0.23,-1.59 0.36,-2.38 0.39,-2.24 0.89,-4.45 1.56,-6.6 0.07,-0.23 0.17,-0.45 0.25,-0.67 0.72,-2.17 1.59,-4.27 2.6,-6.32 0.1,-0.2 0.19,-0.4 0.29,-0.59 4.64,-9.12 11.97,-16.82 20.86,-21.89 0.03,-0.02 0.06,-0.04 0.09,-0.06 2.02,-1.14 4.14,-2.11 6.29,-2.97 0.56,-0.23 1.13,-0.42 1.68,-0.62 1.91,-0.68 3.86,-1.28 5.87,-1.71 0.27,-0.06 0.53,-0.15 0.81,-0.21 2.49,-0.51 4.99,-0.78 7.48,-0.93 0.47,-0.03 0.95,-0.06 1.43,-0.07 2.54,-0.08 5.07,-0.01 7.57,0.29 0.15,0.02 0.28,0.05 0.42,0.07 2.64,0.33 5.25,0.85 7.81,1.59 0.03,0.01 0.08,0.02 0.11,0.03 2.65,0.77 5.24,1.76 7.77,2.95 2.32,1.1 4.59,2.34 6.71,3.76l0.35 0.24c0.3,0.21 0.57,0.44 0.87,0.65 1.43,1.02 2.8,2.11 4.12,3.27 0.32,0.28 0.63,0.57 0.94,0.85 1.32,1.22 2.57,2.5 3.76,3.84 0.12,0.14 0.24,0.26 0.36,0.4 2.74,3.19 5.1,6.71 7,10.49 0.44,0.86 0.88,1.73 1.27,2.62 0.65,1.51 1.22,3.03 1.73,4.57 0.03,0.11 0.09,0.23 0.12,0.34 0.5,1.56 0.9,3.14 1.25,4.74 0.03,0.13 0.07,0.25 0.09,0.37 0.33,1.58 0.57,3.19 0.75,4.8 0.02,0.15 0.05,0.27 0.07,0.42 0.18,1.76 0.28,3.52 0.28,5.31 0,1.83 -0.11,3.64 -0.29,5.45 -0.03,0.27 -0.09,0.52 -0.12,0.78 -0.19,1.56 -0.42,3.11 -0.76,4.63 -0.04,0.17 -0.1,0.34 -0.13,0.51 -0.37,1.64 -0.81,3.25 -1.34,4.86 -0.03,0.07 -0.05,0.14 -0.08,0.21 -0.57,1.67 -1.22,3.32 -1.96,4.95 -8.17,17.84 -26.15,30.3 -47.02,30.3zm111.99 -25.85c-16.35,0 -32.62,-2.18 -45.99,-6.08 0.01,-0.02 0.01,-0.03 0.01,-0.05 0.84,-2.79 1.45,-5.67 1.93,-8.6 0.11,-0.7 0.22,-1.39 0.32,-2.09 0.39,-2.96 0.66,-5.95 0.66,-9.02 0,-2.23 -0.12,-4.44 -0.33,-6.64 -0.08,-0.8 -0.22,-1.56 -0.32,-2.35 -0.15,-1.11 -0.25,-2.23 -0.45,-3.32 13.07,2.41 28.25,3.7 44.17,3.7 20.59,0 50.35,-2.63 68.95,-10.85l0.05 27.46c-2.21,5.33 -28.35,17.84 -69,17.84zm0 -103.37c-40.51,0 -66.6,-12.41 -68.87,-17.18 0.01,-9.82 0.02,-19.79 0.02,-28.09 0.21,0.09 0.47,0.17 0.7,0.27 2.06,0.88 4.21,1.71 6.5,2.47 0.12,0.04 0.24,0.08 0.37,0.12 2.34,0.76 4.81,1.44 7.34,2.07 0.83,0.21 1.68,0.39 2.53,0.59 1.84,0.42 3.7,0.83 5.61,1.19 0.92,0.18 1.84,0.36 2.77,0.52 2.09,0.37 4.2,0.7 6.32,1.01 0.67,0.09 1.34,0.21 2.01,0.3 2.78,0.37 5.57,0.7 8.33,0.96 0.7,0.07 1.38,0.12 2.08,0.18 2.13,0.19 4.23,0.36 6.31,0.5 0.9,0.06 1.79,0.11 2.67,0.16 1.93,0.11 3.81,0.2 5.67,0.27 0.78,0.03 1.56,0.06 2.33,0.09 2.52,0.07 4.99,0.11 7.31,0.11 2.32,0 4.78,-0.04 7.3,-0.11 0.78,-0.03 1.58,-0.06 2.37,-0.09 1.85,-0.07 3.72,-0.15 5.64,-0.27 0.9,-0.05 1.79,-0.1 2.7,-0.16 2.09,-0.14 4.2,-0.31 6.32,-0.51 0.69,-0.06 1.36,-0.11 2.05,-0.18 2.77,-0.28 5.55,-0.6 8.34,-0.98 0.68,-0.09 1.35,-0.21 2.03,-0.3 2.12,-0.3 4.22,-0.64 6.3,-1.01 0.94,-0.17 1.85,-0.35 2.77,-0.52 1.9,-0.37 3.77,-0.77 5.63,-1.2 0.84,-0.2 1.69,-0.38 2.51,-0.59 2.58,-0.65 5.09,-1.34 7.48,-2.11 0.12,-0.04 0.23,-0.09 0.35,-0.12 2.25,-0.74 4.38,-1.56 6.4,-2.42 0.24,-0.1 0.53,-0.19 0.77,-0.29l0.05 27.46c-2.21,5.35 -28.36,17.86 -69.01,17.86z"/>
  </g>
  <path class="fil2" d="M286.84 419.3c-0.76,2.07 -0.78,4.66 -0.02,6.73 6.43,1.44 22.2,-2.94 23.75,7.06 -3.9,0 -21.54,-0.73 -23.75,0.56 -1.15,2.15 -0.69,4.34 -0.13,6.45 3.86,0.89 18.86,0.27 24.07,0.27 -1.31,4.11 -3.94,6.46 -8.71,7.17 -2.96,0.44 -8.73,0.2 -12.14,0.2 -4.2,0 -4.61,2.48 -3.16,7.08 11.42,2.65 13.01,-5.04 25.38,12.27 1.52,2.13 10.28,15.7 11.83,16.46 2.26,1.12 6.09,0.88 8.03,-0.25 0.75,-3.19 -8.35,-13.92 -10.54,-17 -2.26,-3.19 -6.29,-9.01 -9.36,-11.28 -1.31,-0.97 -2.75,-1.54 -4.45,-2.34 6.34,-3.53 10.31,-4.54 12.23,-12.32l9.73 -0.05c1.46,-1.8 1.35,-5.11 0.14,-6.99 -12.49,-0.42 -7.43,1.49 -12.7,-7.04 11.54,-0.03 14.56,1.67 13.48,-5.04 -0.42,-2.63 -1.44,-2.35 -4.21,-2.33 -7.12,0.06 -36.72,-0.45 -39.47,0.36l0 0.01z"/>
  <path class="fil0" d="M407.65 318.33c15.81,0.86 70.97,-0.28 83.28,-12.59 -17.6,-16.23 -115.52,-17.21 -136.53,0.04 8.1,8.1 42.02,11.94 53.25,12.55z"/>
  <path class="fil0" d="M491.63 325.1c-33.23,14.31 -105.02,14.44 -137.82,0.05 0,8.3 -0.01,18.27 -0.02,28.09 2.27,4.76 28.36,17.18 68.87,17.18 40.65,0 66.79,-12.51 69.01,-17.86l-0.05 -27.46z"/>
  <path class="fil0" d="M491.62 373.91c-34.68,17.79 -96.43,17.66 -132.05,2.69l-5.81 -2.68c-0.01,9.42 -0.02,16.9 -0.02,20.27l8.4 8.09 8.48 11.79c14.32,5.12 33.07,8.03 52.04,8.03 32.93,0 67.65,-10.93 69.01,-17.84l-0.05 -30.36z"/>
  <path class="fil0" d="M491.62 428.49c-28.9,12.77 -82.11,12.88 -113.12,7.15l-1.82 32.07c13.37,3.9 29.64,6.08 45.99,6.08 40.65,0 66.79,-12.51 69,-17.84l-0.05 -27.46z"/>
 </g>
</svg>
